<svg width="128" height="128" viewBox="0 0 128 128" xmlns="http://www.w3.org/2000/svg">
  <defs>
    <linearGradient id="bg" x1="0%" y1="0%" x2="100%" y2="100%">
      <stop offset="0%" style="stop-color:#667eea;stop-opacity:1" />
      <stop offset="100%" style="stop-color:#764ba2;stop-opacity:1" />
    </linearGradient>
  </defs>

  <!-- Background circle -->
  <circle cx="64" cy="64" r="60" fill="url(#bg)" stroke="#fff" stroke-width="4"/>

  <!-- Translation symbol -->
  <g transform="translate(32, 32)">
    <!-- Left page -->
    <rect x="0" y="0" width="24" height="32" rx="2" fill="#fff" opacity="0.9"/>
    <line x1="6" y1="8" x2="18" y2="8" stroke="#667eea" stroke-width="1"/>
    <line x1="6" y1="12" x2="16" y2="12" stroke="#667eea" stroke-width="1"/>
    <line x1="6" y1="16" x2="20" y2="16" stroke="#667eea" stroke-width="1"/>
    <line x1="6" y1="20" x2="14" y2="20" stroke="#667eea" stroke-width="1"/>
    <line x1="6" y1="24" x2="17" y2="24" stroke="#667eea" stroke-width="1"/>

    <!-- Right page -->
    <rect x="16" y="4" width="24" height="32" rx="2" fill="#fff" opacity="0.9"/>
    <line x1="22" y1="10" x2="34" y2="10" stroke="#764ba2" stroke-width="1"/>
    <line x1="22" y1="14" x2="32" y2="14" stroke="#764ba2" stroke-width="1"/>
    <line x1="22" y1="18" x2="36" y2="18" stroke="#764ba2" stroke-width="1"/>
    <line x1="22" y1="22" x2="30" y2="22" stroke="#764ba2" stroke-width="1"/>
    <line x1="22" y1="26" x2="33" y2="26" stroke="#764ba2" stroke-width="1"/>
  </g>

  <!-- Translation arrows -->
  <path d="M 44 20 L 52 12 L 60 20" stroke="#fff" stroke-width="2" fill="none" stroke-linecap="round" stroke-linejoin="round"/>
  <path d="M 44 44 L 52 52 L 60 44" stroke="#fff" stroke-width="2" fill="none" stroke-linecap="round" stroke-linejoin="round"/>
</svg>